<svg width="15" height="8" viewBox="0 0 15 8" fill="none" xmlns="http://www.w3.org/2000/svg">
<path d="M7.4998 5.06599L2.1198 0.283988C1.91467 0.101247 1.64953 0.000274658 1.3748 0.000274658C1.10008 0.000274658 0.834937 0.101247 0.629805 0.283988C0.189805 0.673988 0.189805 1.28099 0.629805 1.67199L6.7548 7.11599C6.9528 7.29199 7.2548 7.39999 7.4998 7.39999C7.8008 7.39999 8.0258 7.31099 8.2448 7.11599L14.3698 1.67199C14.5948 1.47199 14.6998 1.26199 14.6998 0.977988C14.6998 0.693988 14.5948 0.482988 14.3698 0.283988C14.1647 0.101247 13.8995 0.000274658 13.6248 0.000274658C13.3501 0.000274658 13.0849 0.101247 12.8798 0.283988L7.4998 5.06599Z" fill="#272727"/>
</svg>
